<svg xmlns="http://www.w3.org/2000/svg" viewBox="0 0 24 24"><path d="m22 20.47 -0.89 -13A1.58 1.58 0 0 0 19.5 6h-1.75a0.25 0.25 0 0 1 -0.25 -0.25V5.5a5.5 5.5 0 0 0 -11 0v0.25a0.25 0.25 0 0 1 -0.25 0.25H4.5a1.58 1.58 0 0 0 -1.57 1.46L2 20.47l0 1A2.5 2.5 0 0 0 4.5 24h15a2.5 2.5 0 0 0 2.5 -2.5l0 -1.03ZM8 12a1 1 0 1 1 -1 1 1 1 0 0 1 1 -1Zm-0.37 7.08a5.26 5.26 0 0 1 8.74 0 0.75 0.75 0 0 1 -0.21 1 0.72 0.72 0 0 1 -0.42 0.13 0.75 0.75 0 0 1 -0.62 -0.33 3.75 3.75 0 0 0 -6.24 0 0.75 0.75 0 0 1 -1.25 -0.84ZM16 14a1 1 0 1 1 1 -1 1 1 0 0 1 -1 1ZM8.5 5.5a3.5 3.5 0 0 1 7 0v0.25a0.25 0.25 0 0 1 -0.25 0.25h-6.5a0.25 0.25 0 0 1 -0.25 -0.25Z" fill="#9f97cc61" stroke-width="1"></path></svg>